<?xml version="1.0" encoding="UTF-8" standalone="no"?>
<svg
   xmlns:dc="http://purl.org/dc/elements/1.1/"
   xmlns:cc="http://creativecommons.org/ns#"
   xmlns:rdf="http://www.w3.org/1999/02/22-rdf-syntax-ns#"
   xmlns:svg="http://www.w3.org/2000/svg"
   xmlns="http://www.w3.org/2000/svg"
   version="1.0"
   width="25pt"
   height="43pt"
   viewBox="0 0 261.37766 431.22968"
   preserveAspectRatio="xMidYMid meet"
   id="svg16">
  <defs
     id="defs20" />
  <metadata
     id="metadata2">
    <rdf:RDF>
      <cc:Work
         rdf:about="">
        <dc:format>image/svg+xml</dc:format>
        <dc:type
           rdf:resource="http://purl.org/dc/dcmitype/StillImage" />
      </cc:Work>
    </rdf:RDF>
  </metadata>
  <g
     transform="matrix(0.1,0,0,-0.1,-486.46235,608.01386)"
     id="g14"
     style="fill:#03a9f4;stroke:none">
    <path
       d="m 6020,6134 c -264,-34 -463,-104 -654,-231 -242,-161 -412,-396 -478,-659 -31,-124 -31,-332 -1,-454 27,-105 77,-226 127,-304 35,-54 54,-123 254,-890 l 217,-831 687,-3 687,-2 10,37 c 5,21 35,137 66,258 311,1213 345,1340 379,1395 222,363 219,759 -8,1110 -63,96 -207,244 -314,320 -155,110 -372,200 -569,236 -87,15 -335,26 -403,18 z"
       id="path4" />
    <path
       d="m 5544,2680 c -32,-13 -64,-59 -64,-91 0,-18 11,-41 29,-61 l 29,-33 h 636 636 l 27,27 c 38,39 38,97 0,136 l -27,27 -623,2 c -342,1 -632,-2 -643,-7 z"
       id="path6" />
    <path
       d="m 5531,2406 c -56,-31 -67,-102 -22,-147 l 29,-29 h 632 c 414,0 638,4 651,10 29,16 51,67 44,100 -4,16 -20,41 -37,55 l -30,25 h -621 c -497,-1 -627,-3 -646,-14 z"
       id="path8" />
    <path
       d="m 5597,2122 c -38,-40 -37,-93 2,-133 l 29,-29 h 545 545 l 30,25 c 17,14 33,39 37,55 7,33 -15,84 -44,100 -13,6 -211,10 -568,10 h -549 z"
       id="path10" />
    <path
       d="m 5864,1863 c 52,-101 227,-168 375,-144 108,18 205,73 244,140 l 18,31 h -326 -326 z"
       id="path12" />
  </g>
</svg>
